<svg width="76" height="76" viewBox="0 0 76 76" fill="none" xmlns="http://www.w3.org/2000/svg">
<g filter="url(#filter0_di_4_35)">
<rect x="4" width="68" height="68" rx="20" fill="#F8F3FF"/>
<rect x="5" y="1" width="66" height="66" rx="19" stroke="#A89DFF" stroke-opacity="0.51" stroke-width="2"/>
<path d="M44.9853 5.296V14.352H49.7213V17.296H44.9853V33.296H41.5293V5.296H44.9853ZM21.8173 23.664C25.1026 22.3627 27.7906 20.5493 29.8813 18.224C31.9719 15.8987 33.2413 13.3067 33.6893 10.448H23.6733V7.408H37.4653C37.4653 9.86133 37.1133 12.0693 36.4093 14.032C35.7266 15.9947 34.7773 17.7547 33.5613 19.312C32.4093 20.8053 31.0333 22.1387 29.4333 23.312C27.8546 24.464 26.0626 25.488 24.0573 26.384L21.8173 23.664Z" fill="#DD88D4"/>
<path d="M45.824 35.344C46.1013 35.7067 46.3893 36.1547 46.688 36.688C47.008 37.2213 47.3173 37.7547 47.616 38.288C47.936 38.8213 48.2027 39.3013 48.416 39.728L46.304 40.624C45.984 39.984 45.5787 39.2373 45.088 38.384C44.6187 37.5307 44.1707 36.8053 43.744 36.208L45.824 35.344ZM49.44 34C49.7387 34.384 50.048 34.8427 50.368 35.376C50.7093 35.9093 51.0293 36.4427 51.328 36.976C51.648 37.488 51.904 37.9467 52.096 38.352L50.016 39.248C49.6747 38.5653 49.2587 37.8187 48.768 37.008C48.2987 36.176 47.84 35.4613 47.392 34.864L49.44 34ZM37.44 35.6C37.4187 35.984 37.3867 36.4427 37.344 36.976C37.3227 37.488 37.3013 37.936 37.28 38.32C37.1733 41.5627 36.8853 44.4107 36.416 46.864C35.9467 49.296 35.2853 51.4507 34.432 53.328C33.6 55.184 32.5547 56.8267 31.296 58.256C30.0587 59.664 28.608 60.9547 26.944 62.128L24 59.728C24.576 59.4293 25.1947 59.0453 25.856 58.576C26.5173 58.1067 27.1253 57.5947 27.68 57.04C28.704 56.08 29.6 55.0027 30.368 53.808C31.136 52.6133 31.776 51.28 32.288 49.808C32.8213 48.3147 33.2267 46.6293 33.504 44.752C33.7813 42.8533 33.92 40.7307 33.92 38.384C33.92 38.1493 33.9093 37.8613 33.888 37.52C33.888 37.1787 33.8667 36.8373 33.824 36.496C33.7813 36.1547 33.7387 35.856 33.696 35.6H37.44ZM48.48 42.352C48.4373 42.608 48.3947 42.896 48.352 43.216C48.3093 43.5147 48.2773 43.7707 48.256 43.984C48.2347 44.624 48.2027 45.4667 48.16 46.512C48.1173 47.5573 48.0427 48.6987 47.936 49.936C47.8507 51.152 47.7333 52.3787 47.584 53.616C47.4347 54.832 47.264 55.9627 47.072 57.008C46.88 58.032 46.6347 58.864 46.336 59.504C46.016 60.2507 45.5573 60.7947 44.96 61.136C44.384 61.4987 43.6053 61.68 42.624 61.68C41.7707 61.68 40.8853 61.648 39.968 61.584C39.072 61.5413 38.2187 61.4987 37.408 61.456L37.024 58.096C37.856 58.2027 38.6667 58.2987 39.456 58.384C40.2667 58.448 41.0027 58.48 41.664 58.48C42.1547 58.48 42.5387 58.4053 42.816 58.256C43.0933 58.0853 43.3173 57.7973 43.488 57.392C43.7013 56.944 43.8933 56.3253 44.064 55.536C44.2347 54.7253 44.3733 53.8293 44.48 52.848C44.608 51.8667 44.704 50.864 44.768 49.84C44.8533 48.816 44.9067 47.8453 44.928 46.928C44.9707 45.9893 44.992 45.168 44.992 44.464H28.672C28.0747 44.464 27.424 44.4747 26.72 44.496C26.0373 44.5173 25.3867 44.5493 24.768 44.592V41.232C25.3867 41.296 26.0373 41.3493 26.72 41.392C27.4027 41.4347 28.0533 41.456 28.672 41.456H44.032C44.4587 41.456 44.8533 41.4453 45.216 41.424C45.5787 41.3813 45.92 41.328 46.24 41.264L48.48 42.352Z" fill="#9865FF"/>
</g>
<defs>
<filter id="filter0_di_4_35" x="0" y="0" width="76" height="76" filterUnits="userSpaceOnUse" color-interpolation-filters="sRGB">
<feFlood flood-opacity="0" result="BackgroundImageFix"/>
<feColorMatrix in="SourceAlpha" type="matrix" values="0 0 0 0 0 0 0 0 0 0 0 0 0 0 0 0 0 0 127 0" result="hardAlpha"/>
<feOffset dy="4"/>
<feGaussianBlur stdDeviation="2"/>
<feComposite in2="hardAlpha" operator="out"/>
<feColorMatrix type="matrix" values="0 0 0 0 0 0 0 0 0 0 0 0 0 0 0 0 0 0 0.25 0"/>
<feBlend mode="normal" in2="BackgroundImageFix" result="effect1_dropShadow_4_35"/>
<feBlend mode="normal" in="SourceGraphic" in2="effect1_dropShadow_4_35" result="shape"/>
<feColorMatrix in="SourceAlpha" type="matrix" values="0 0 0 0 0 0 0 0 0 0 0 0 0 0 0 0 0 0 127 0" result="hardAlpha"/>
<feOffset dy="4"/>
<feGaussianBlur stdDeviation="2"/>
<feComposite in2="hardAlpha" operator="arithmetic" k2="-1" k3="1"/>
<feColorMatrix type="matrix" values="0 0 0 0 1 0 0 0 0 1 0 0 0 0 1 0 0 0 0.3 0"/>
<feBlend mode="normal" in2="shape" result="effect2_innerShadow_4_35"/>
</filter>
</defs>
</svg>
